<svg data-v-423bf9ae="" xmlns="http://www.w3.org/2000/svg" viewBox="0 0 421 90" class="iconLeft"><!----><!----><!----><g data-v-423bf9ae="" id="5caeb3e7-dfd3-4f34-b856-dafd3b28f7d0" fill="#0C203C" transform="matrix(6.097560881055492,0,0,6.097560881055492,94.23871348945724,-6.3414611763455895)"><path d="M8.61 7.80C9.38 7.80 10.02 8.44 10.02 9.24L10.02 12.56C10.02 12.96 10.37 13.30 10.78 13.30C11.19 13.30 11.52 12.96 11.52 12.56L11.52 9.24C11.52 7.62 10.22 6.30 8.61 6.30C7.73 6.30 6.93 6.66 6.41 7.27C5.88 6.66 5.10 6.30 4.21 6.30C3.68 6.30 3.16 6.45 2.72 6.72C2.60 6.45 2.34 6.30 2.04 6.30C1.64 6.30 1.30 6.62 1.30 7.06L1.30 9.23C1.30 9.23 1.30 9.23 1.30 9.24L1.30 12.56C1.30 12.92 1.57 13.20 1.90 13.29C1.95 13.29 1.99 13.30 2.04 13.30C2.34 13.30 2.62 13.10 2.74 12.85C2.74 12.85 2.74 12.85 2.74 12.85C2.74 12.82 2.74 12.80 2.74 12.78C2.77 12.75 2.77 12.73 2.79 12.70C2.79 12.70 2.79 12.67 2.79 12.66C2.79 12.63 2.80 12.59 2.80 12.56L2.80 12.56L2.80 9.24C2.80 8.44 3.44 7.80 4.21 7.80C5.00 7.80 5.64 8.43 5.66 9.20C5.66 9.21 5.66 9.23 5.66 9.24L5.66 12.56C5.66 12.96 6.02 13.30 6.41 13.30C6.41 13.30 6.41 13.30 6.41 13.30C6.41 13.30 6.41 13.30 6.41 13.30C6.82 13.30 7.15 12.96 7.15 12.56L7.15 9.24C7.15 9.23 7.15 9.21 7.15 9.20C7.18 8.43 7.81 7.80 8.61 7.80ZM20.54 7.06C20.54 6.64 20.20 6.30 19.80 6.30C19.43 6.30 19.15 6.57 19.07 6.92C18.54 6.54 17.91 6.30 17.21 6.30C16.25 6.30 15.43 6.71 14.83 7.35C14.22 7.98 13.87 8.85 13.87 9.81C13.87 10.77 14.22 11.63 14.83 12.28C15.43 12.91 16.25 13.30 17.21 13.30C17.21 13.30 17.21 13.30 17.21 13.30C17.91 13.30 18.54 13.08 19.07 12.70C19.15 13.03 19.43 13.30 19.80 13.30C20.20 13.30 20.54 12.96 20.54 12.56L20.54 9.81C20.54 9.81 20.54 9.81 20.54 9.81C20.54 9.81 20.54 9.81 20.54 9.81L20.54 7.06ZM18.51 11.26C18.17 11.61 17.70 11.80 17.21 11.80C16.70 11.80 16.23 11.61 15.90 11.26C15.57 10.89 15.37 10.39 15.37 9.81C15.37 9.23 15.57 8.72 15.90 8.37C16.23 7.99 16.70 7.80 17.21 7.80C17.70 7.80 18.17 7.99 18.51 8.37C18.84 8.72 19.05 9.23 19.05 9.81C19.05 10.39 18.84 10.89 18.51 11.26ZM26.85 6.31C26.15 6.30 25.55 6.55 25.09 6.86C24.99 6.93 24.88 7.04 24.79 7.14L24.79 7.04C24.79 6.64 24.44 6.31 24.02 6.31C23.62 6.31 23.28 6.64 23.28 7.04L23.28 12.56C23.28 12.96 23.62 13.30 24.02 13.30C24.44 13.30 24.79 12.96 24.79 12.56L24.79 9.90C24.86 9.70 25.03 9.17 25.37 8.72C25.54 8.46 25.75 8.22 26.01 8.05C26.25 7.87 26.53 7.78 26.85 7.78C27.27 7.78 27.59 7.43 27.59 7.04C27.59 6.64 27.27 6.31 26.85 6.31ZM29.43 12.54C29.43 12.95 29.76 13.30 30.18 13.30C30.56 13.30 30.86 13.03 30.93 12.70C31.46 13.06 32.13 13.30 32.83 13.30C34.72 13.30 36.23 11.70 36.23 9.81C36.23 7.90 34.72 6.30 32.83 6.30C32.14 6.30 31.47 6.52 30.95 6.89L30.95 4.26C30.95 3.85 30.62 3.50 30.18 3.50C29.76 3.50 29.43 3.85 29.43 4.26L29.43 9.80C29.43 9.80 29.43 9.80 29.43 9.81C29.43 9.81 29.43 9.81 29.43 9.81L29.43 12.54ZM31.51 8.40C31.86 8.04 32.31 7.83 32.83 7.83C33.33 7.83 33.80 8.04 34.15 8.40C34.50 8.75 34.71 9.25 34.71 9.81C34.71 10.35 34.50 10.85 34.15 11.20C33.80 11.56 33.33 11.77 32.83 11.77C32.31 11.77 31.86 11.56 31.51 11.20C31.16 10.85 30.95 10.35 30.95 9.81C30.95 9.25 31.16 8.75 31.51 8.40ZM41.72 13.34C41.72 13.34 41.72 13.34 41.72 13.34C42.64 13.34 43.48 12.94 44.06 12.28C44.69 11.66 45.04 10.79 45.04 9.81L45.04 9.81C45.04 8.86 44.69 8.04 44.06 7.36C43.48 6.71 42.64 6.30 41.72 6.30C40.75 6.30 39.94 6.71 39.31 7.36C38.71 8.04 38.35 8.86 38.35 9.81C38.35 10.79 38.71 11.66 39.31 12.28C39.94 12.94 40.75 13.34 41.72 13.34ZM40.38 8.36C40.73 8.05 41.19 7.83 41.72 7.83C42.21 7.83 42.66 8.05 43.01 8.36C43.36 8.74 43.55 9.24 43.55 9.81L43.55 9.81C43.55 10.42 43.36 10.91 43.01 11.30C42.66 11.63 42.21 11.82 41.72 11.82C41.19 11.82 40.73 11.63 40.38 11.30C40.05 10.91 39.87 10.42 39.87 9.81C39.87 9.24 40.05 8.74 40.38 8.36ZM48.97 9.37C48.99 8.54 49.64 7.87 50.47 7.85C51.31 7.87 51.98 8.54 51.98 9.37L51.98 12.53C51.98 12.96 52.32 13.30 52.75 13.30C53.19 13.30 53.52 12.96 53.52 12.53L53.52 9.37C53.52 7.69 52.16 6.30 50.47 6.30C49.92 6.30 49.42 6.47 48.97 6.71L48.97 4.27C48.97 3.84 48.62 3.50 48.19 3.50C47.77 3.50 47.42 3.84 47.42 4.27L47.42 12.53C47.42 12.60 47.43 12.67 47.45 12.73C47.54 13.05 47.84 13.30 48.19 13.30C48.62 13.30 48.97 12.96 48.97 12.53L48.97 9.37Z"></path></g><defs data-v-423bf9ae=""><linearGradient data-v-423bf9ae="" gradientTransform="rotate(25)" id="42bb4d9c-8873-403c-8f2f-74a7b6fbfca7" x1="0%" y1="0%" x2="100%" y2="0%"><stop data-v-423bf9ae="" offset="0%" style="stop-color: rgb(40, 139, 88); stop-opacity: 1;"></stop><stop data-v-423bf9ae="" offset="100%" style="stop-color: rgb(21, 34, 241); stop-opacity: 1;"></stop></linearGradient></defs><g data-v-423bf9ae="" id="daef5705-6077-44f2-a25f-b0c457643af2" transform="matrix(1.1962833972944367,0,0,1.1962833972944367,-14.567322915871735,-7.330211824968757)" stroke="none" fill="url(#42bb4d9c-8873-403c-8f2f-74a7b6fbfca7)"><path clip-rule="evenodd" d="M46.646 8.647c1.247 1.245 1.868 2.749 1.87 4.51-.002 1.761-.623 3.265-1.87 4.51l-12.209 12.21h39.8c1.763 0 3.267.623 4.511 1.869 1.246 1.245 1.869 2.749 1.869 4.51 0 1.761-.623 3.265-1.869 4.51-1.244 1.246-2.748 1.869-4.511 1.869h-55.2c-1.762 0-3.266-.623-4.51-1.869-1.247-1.246-1.869-2.749-1.869-4.51 0-1.762.622-3.265 1.869-4.51l23.098-23.1c1.245-1.247 2.749-1.869 4.511-1.869 1.762.001 3.264.623 4.51 1.87zM19.817 58.91c-1.761 0-3.265-.624-4.511-1.869-1.245-1.246-1.868-2.75-1.868-4.51 0-1.763.623-3.266 1.868-4.511 1.246-1.246 2.75-1.869 4.511-1.869h55.146c1.761 0 3.266.623 4.51 1.869 1.246 1.245 1.869 2.748 1.869 4.511 0 1.76-.623 3.264-1.869 4.51l-23.1 23.1c-1.245 1.245-2.748 1.869-4.51 1.869s-3.265-.624-4.51-1.869c-1.246-1.246-1.87-2.749-1.87-4.511 0-1.761.624-3.265 1.87-4.511l12.21-12.209H19.817z"></path></g><!----></svg>