<?xml version="1.0" encoding="utf-8"?>
<!-- Generator: Adobe Illustrator 26.0.2, SVG Export Plug-In . SVG Version: 6.00 Build 0)  -->
<svg version="1.1" id="Layer_1" xmlns="http://www.w3.org/2000/svg" xmlns:xlink="http://www.w3.org/1999/xlink" x="0px" y="0px"
	 viewBox="0 0 82.2 90" style="enable-background:new 0 0 82.2 90;" xml:space="preserve">
<style type="text/css">
	.st0{fill:none;}
	.st1{fill:#FFFFFF;}
</style>
<g id="_x35_7148daa-883d-4cca-9069-3a99fa43503d" transform="matrix(Infinity,0,0,Infinity,0,0)">
	<path class="st0" d="M-5.9-0.8"/>
</g>
<g id="_x35_59769e4-12af-4684-996b-05b07cfbd605" transform="matrix(1.1962833972944367,0,0,1.1962833972944367,-9.225320047219391,-7.330211824968757)">
	<path class="st1" d="M41.7,8c1.2,1.2,1.9,2.7,1.9,4.5c0,1.8-0.6,3.3-1.9,4.5L29.5,29.2h39.8c1.8,0,3.3,0.6,4.5,1.9
		c1.2,1.2,1.9,2.7,1.9,4.5c0,1.8-0.6,3.3-1.9,4.5c-1.2,1.2-2.7,1.9-4.5,1.9H14.1c-1.8,0-3.3-0.6-4.5-1.9c-1.2-1.2-1.9-2.7-1.9-4.5
		c0-1.8,0.6-3.3,1.9-4.5L32.7,8c1.2-1.2,2.7-1.9,4.5-1.9C39,6.1,40.5,6.8,41.7,8z M14.9,58.3c-1.8,0-3.3-0.6-4.5-1.9
		c-1.2-1.2-1.9-2.8-1.9-4.5c0-1.8,0.6-3.3,1.9-4.5c1.2-1.2,2.8-1.9,4.5-1.9H70c1.8,0,3.3,0.6,4.5,1.9c1.2,1.2,1.9,2.7,1.9,4.5
		c0,1.8-0.6,3.3-1.9,4.5L51.4,79.5c-1.2,1.2-2.7,1.9-4.5,1.9s-3.3-0.6-4.5-1.9c-1.2-1.2-1.9-2.7-1.9-4.5c0-1.8,0.6-3.3,1.9-4.5
		l12.2-12.2C54.6,58.3,14.9,58.3,14.9,58.3z"/>
</g>
<g id="_x32_df4bd52-2a93-4a49-aa84-e36f06e45482" transform="matrix(0,0,0,0,0,0)">
	<path d="M-5.9-0.8"/>
</g>
</svg>
