<?xml version="1.0" standalone="no"?>
<!DOCTYPE svg PUBLIC "-//W3C//DTD SVG 20010904//EN"
 "http://www.w3.org/TR/2001/REC-SVG-20010904/DTD/svg10.dtd">
<svg version="1.0" xmlns="http://www.w3.org/2000/svg"
 width="188.000000pt" height="188.000000pt" viewBox="0 0 188.000000 188.000000"
 preserveAspectRatio="xMidYMid meet">
<metadata>
Created by potrace 1.14, written by Peter Selinger 2001-2017
</metadata>
<g transform="translate(0.000000,188.000000) scale(0.100000,-0.100000)"
fill="#000000" stroke="none">
<path d="M749 1855 c-33 -18 -616 -601 -640 -640 -40 -65 -17 -157 54 -209 28
-21 33 -21 767 -21 734 0 739 0 767 21 96 71 99 201 6 264 l-37 25 -514 5
-514 5 160 161 c132 132 162 167 172 202 20 77 -12 152 -81 187 -35 19 -106
19 -140 0z"/>
<path d="M214 888 c-41 -11 -91 -68 -100 -113 -14 -78 12 -137 77 -174 36 -20
50 -21 545 -21 l509 0 -161 -162 c-88 -90 -166 -176 -172 -191 -29 -68 2 -159
67 -195 45 -25 109 -29 149 -8 42 22 640 627 652 659 24 66 1 140 -57 184
l-36 28 -721 1 c-397 0 -735 -3 -752 -8z"/>
</g>
</svg>
