<svg xmlns="http://www.w3.org/2000/svg" viewBox="0 0 820 820">
	<defs>
		<style>
			.cls-1 {
				fill: #0089FF;
			}

			.cls-2 {
				fill: none;
				stroke: #2A3042;
				stroke-linecap: round;
				stroke-linejoin: round;
				stroke-width: 7px;
			}

			.cls-3 {
				fill: #2A3042;
			}
		</style>
	</defs>
	<g id="CHARACTERS">
		<g id="Click">
			<path id="BG" class="cls-1"
				d="M698.6,357.9c-2.66-47.66-15.47-96-41.88-136.17a200.37,200.37,0,0,0-49.22-52.06C586,154,560.87,143.5,535.1,137.23c-27.62-6.72-56.25-9-84.61-9.45s-57.1.24-85.44,2.5c-30.11,2.4-60,7.67-87.6,20.35a185.92,185.92,0,0,0-53.91,38.22c8.75,3.59,16.9,7.63,20.45,14.06,3.79,6.86,1.22,17.75-6,36.84-6.54,17.23-15.64,40-26.35,74.56h0a7,7,0,0,1,2.61.14c10.82,2.75-3.15,49.77-9.76,67.87-4.52,12.39-11,21.14-13.28,33.37-1.48,8-2.86,19.09-3.16,21.48.64.08,1.28.16,1.9.26a247.23,247.23,0,0,1,6.24,31.81c9.34,1.29,19.61,20.58,23.39,30.09,6.79,17.08,12.28,34.6,19.31,51.68,9.51,23.08,22.42,52.75,49.46,54.59a58.21,58.21,0,0,0,27-4.69c-3.7-13.49-3.52-26.29,7.41-34.55-7.94-7.49-11.4-21.82-10.85-32.7.49-9.61,4.81-21,13.95-24.86-.47-12.64.29-29.19.29-42.15,1.17,0,2.34.07,3.5.09l-.35-1.94L327,439.74l-.15-.23a16,16,0,0,1-9.77-5.24l-1.89.59c-7.12-.28-11.87,1.36-18.51-3.75-4.66-3.59-8.52-10.86-9.8-17.66l-2.22-1.23c-10.94-7.3-16.09-36.5,1.45-37.59l2.69-1.18c-3.15-14.56,2.21-22.51,16-27.5,3-1.1,6.33-2.25,9.77-3.28-8.65-4-19.06-9-27.11-14.34-7.47-4.93-15.63-10.86-20.75-18-4.57-6.4-10.45-17.85-2.14-24.08,9.27-7,18.6,2.34,24.88,7.58,9.44,7.88,20.83,13.53,31.67,19.79,10.13,5.86,22.87,11.34,33.79,17.25,21,11.38,38.71,17.79,36.51,45.44-1.82,22.8-13,46.83-10.12,73.3l0,.37c1.21-.91,2.47-1.87,3.8-2.9,2.2,9.89,3.77,32.23,3.77,32.23,12.68-3.62,17.56,13.2,22.51,29.85l.33-.24c5.21-6.51,10.46-12.95,16-19.2,20-22.61,43-50,56-62.57.47.72,1,1.45,1.55,2.19,4.51-10.94,14.62-35.17,20.33-46.51,7.15-14.18,18.07-33.95,27.43-47.78-7.85-6.47-37.52-23.51-45-29.21,26.54-11.28,51.53-18.63,77.18-21.7,1.45-.17,3-.33,4.52-.47a38.57,38.57,0,0,1-8-11.81c-1.08-2.45,1.56-5.52,4.08-3.77,10.08,7,23,2.81,34.32,5.12,9,1.84,17.74,8.77,17.27,18.63a3.33,3.33,0,0,1,.48.21,20.07,20.07,0,0,1,2.83,1.86c17.1,9.59,16,36.44,10.42,52.35q-.81,2.26-1.74,4.47h0c9.67,2.53,17.39,8.31,15.85,19.64-2.16,16-23,17.26-38.71,14.67l.31.06a41,41,0,0,1-13.18,9.42,4.39,4.39,0,0,1-3.48.05c-3.09,11.43-7.24,27.43-8.33,35-2.06,14.34-5.1,37.52-5.1,37.52l-.28,1.29c.53-.1,1.06-.21,1.57-.33,0,0-.9,18.66,2.38,22.6S597,505.27,603,511.24c7.64,7.69,14.8,18,21,29a156.21,156.21,0,0,0,35.26-30.12C694.26,469.11,701.51,410.06,698.6,357.9Z" />
			<g id="Character">
				<path class="cls-2"
					d="M388.82,479.31s-1.57-22.34-3.77-32.23c-8.62,6.63-14.17,10.86-23.93,14.85-10.95,4.47-22.51,5.18-35,4.73,0,13-.76,29.51-.29,42.15a87.19,87.19,0,0,0,36.23-8.34C373,495.31,386,487.3,388.82,479.31Z" />
				<path class="cls-2"
					d="M467.49,457.63c-1.24,6.84-6.09,30.47,6.63,23.09,9.58-5.55,15.71-17.91,24.12-24.59,1.11,14.33-8.16,32.3-.54,46.69,7.15,13.51,28.25,5.34,39.65.94,8-3.09,22.81-8.81,30.78-10.23" />
				<path class="cls-2"
					d="M485.59,428.18s12.47-30.45,20-45.35c7.15-14.18,18.07-33.95,27.43-47.78-7.85-6.47-37.52-23.51-45-29.21,26.54-11.28,51.53-18.63,77.18-21.7,22.14-2.65,57.4-2.12,52.59,30.27-1.82,12.19-8.2,25.53-15,36,13.26-3.12,45.4-2.07,42.4,20-2.86,21.12-38.54,16.58-51.48,11.3,0,0-10.11,35.4-11.91,47.92-2.06,14.34-5.1,37.52-5.1,37.52" />
				<path class="cls-2" d="M550.16,352.79c2.94,2.9,11.14,3.43,15,2" />
				<path class="cls-2" d="M556.77,319.64c-1.21,2.47-3.22,6.62-3.22,6.62" />
				<path class="cls-2" d="M570.4,323.91c-1.22,2.47-3.22,6.62-3.22,6.62" />
				<path class="cls-2"
					d="M325.83,508.81c-9.14,3.87-13.46,15.25-13.95,24.86-.55,10.88,2.91,25.21,10.85,32.7-13.84,10.46-10.45,28.2-3.75,45.41s20.58,45.64,20.58,55.14" />
				<path class="cls-2"
					d="M388.82,479.31c13.94-4,18.46,16.76,24,34.8s16.81,41.07,28.72,61.29c15.8,26.8,44,78,84.8,77.92,24.88,0,28.12-14.91,22.88-22.82s-19.77-1.65-11.56,7.74,29.49-8.16,35.91-28.09" />
				<path class="cls-2"
					d="M411.66,508.92c5.21-6.51,10.46-12.95,16-19.2,20-22.61,43-50,56-62.57,5.36,8.11,15.3,17.43,32,27.12s43,18.31,62.33,13.8c0,0-.9,18.66,2.38,22.61S597,505.27,603,511.24c15.76,15.86,29.47,42.87,36.58,64.16,3.82,11.46,7.88,31.17,9.54,42.85" />
				<path class="cls-2"
					d="M139.17,483.19s-5.69-36.39-6.53-44.93a192.79,192.79,0,0,1,57.28-.82,247.23,247.23,0,0,1,6.24,31.81c9.34,1.29,19.61,20.58,23.39,30.09,6.79,17.08,12.28,34.6,19.31,51.68,9.51,23.08,22.42,52.75,49.46,54.59a58.21,58.21,0,0,0,27-4.69" />
				<path class="cls-2"
					d="M196.16,469.25c-18.69,0-54.84,7.87-63.52,19.84s1.3,55.06,5.19,69.27c7.37,26.9,13.25,56.21,24.3,81.69,6.56,15.14,11.1,40.91,22.93,52.3" />
				<path class="cls-2"
					d="M159.08,380.26c3.71-13.17,17.74-19.17,30.65-26.82,7-18,13.66-41.72,24.49-39s-3.15,49.77-9.76,67.87c-4.52,12.39-11,21.14-13.28,33.37-1.67,9.07-3.21,21.95-3.21,21.95" />
				<line class="cls-2" x1="329.27" y1="464.81" x2="326.98" y2="439.74" />
				<path class="cls-2" d="M331.79,439c-13.33,4.2-27.06-16.39-14.23-24.31" />
				<path class="cls-2"
					d="M161.79,373.54s-13.07-3.38-19.24-8c-8.92-6.66-5.62-19.81-4.76-29.61,3.62-41.32,14.31-76.79,30.29-114.5,4.63-10.93,10.48-24.91,17.91-34,7.63-9.35,18.19-6.27,29.57-1.74s23.81,8.86,28.43,17.24c3.79,6.86,1.22,17.75-6,36.84-6.54,17.23-15.64,40-26.35,74.56" />
				<path class="cls-2"
					d="M315.17,434.86c-7.12-.28-11.87,1.36-18.51-3.75-6.11-4.7-10.87-15.75-10.2-23.75.91-10.85,31.83-32.28,37.75-24.53" />
				<path class="cls-2"
					d="M133.73,435c-5.07-22.76-1.13-44.77-6-66.83-4.33-19.46-10.64-44.15-4-63.15,3.56-10.18,11-13,18.73-7.32" />
				<path class="cls-2"
					d="M288.17,401.63c-3.35-15.43-2.93-23.15,10.32-31.91,7.68-5.08,25.06-14.14,32.88-12" />
				<path class="cls-2" d="M130,294.56c-3-3.22-1.89-14.81.64-19.18,3.24-5.63,14.23-13.1,20.79-8.76" />
				<path class="cls-2" d="M289.1,374.94c-3.85-15.53,1.43-23.83,15.63-29,12.23-4.44,29-9.78,40.76-4.15" />
				<path class="cls-2" d="M137.14,269.43c-3.35-11.57,5.3-25.83,20-24.1" />
				<path class="cls-2" d="M284.64,412.22c-10.94-7.3-16.09-36.5,1.45-37.59" />
				<path class="cls-2" d="M143.74,247.91c0-12.92,11.86-38.38,25-30.62" />
				<path class="cls-2"
					d="M314.76,342.78c-8.7-4-19.24-9.08-27.37-14.45-7.47-4.93-15.63-10.86-20.75-18-4.57-6.4-10.45-17.85-2.14-24.08,9.27-7,18.6,2.34,24.88,7.58,9.44,7.88,20.83,13.53,31.67,19.79,10.13,5.86,22.87,11.34,33.79,17.25,21,11.38,38.71,17.79,36.51,45.44-1.82,22.8-13,46.83-10.12,73.3" />
				<path class="cls-2"
					d="M152.31,355.32c4.54-47.25,17.76-83.89,32.75-128.9,2.79-8.38,10.7-26.27,17.57-32.1" />
				<path class="cls-2" d="M616.28,368.57c1.47-1.06,9.54-1.16,9.54-1.16" />
				<path class="cls-3"
					d="M590.08,394.56a4.42,4.42,0,0,0,3.53,0,41,41,0,0,0,13.18-9.42,62.79,62.79,0,0,1-13.08-3.43S592.11,387.15,590.08,394.56Z" />
				<path class="cls-3"
					d="M620.66,293.91a20.07,20.07,0,0,0-2.83-1.86,3.33,3.33,0,0,0-.48-.21c.47-9.86-8.23-16.79-17.27-18.63-11.31-2.31-24.24,1.9-34.32-5.12-2.52-1.75-5.16,1.32-4.08,3.77,8.22,18.79,27.9,25.56,47,27.14-4.57,5.27-6.34,12.8-6.42,19.88-.13,11.46,3.72,26-6.36,34.57-2.45,2.07.52,6.42,3.3,4.65a67.53,67.53,0,0,0,11.05-8.81,59.94,59.94,0,0,1,19.13,1.44q.93-2.21,1.74-4.47C636.68,330.35,637.76,303.5,620.66,293.91Z" />
			</g>
		</g>
	</g>
</svg>