<svg xmlns="http://www.w3.org/2000/svg" viewBox="0 0 820 820"><defs><style>.cls-1{fill:#f4f6f9;}.cls-2{fill:none;stroke:#333;}.cls-2,.cls-4{stroke-linecap:round;stroke-linejoin:round;stroke-width:7px;}.cls-3{fill:#333;}.cls-4{fill:#ffe945;stroke:#ffe945;}</style></defs><g id="CHARACTERS"><g id="Presenting"><g id="BG"><path class="cls-1" d="M654,470.9l-1.46,1c-2.49,6.72-2.85,24.09-2.85,24.09l-.28,1.21c1.27.13,2.44.27,3.47.42.66,12,2.21,40.95,2.21,40.95l.43,2.38a26.45,26.45,0,0,1,14,14.56,47.43,47.43,0,0,1,3.88,17.95c11.74-14.43,21-29.57,26.89-44.87,8.12-21.2,10.31-49.12,8.67-79.26C693,457.31,670,464.21,654,470.9Z"/><path class="cls-1" d="M106.23,545.31c6.31-5.93,13-11.59,19.93-17.06C146.69,512.13,174,496.71,193.38,480c11.28-9.71,11.57-29.33,17.71-42.75.66.31,1.35.58,2,.88l0-1.32c0-21.46,1.13-54.65,2.21-81.34-2.16,1.26-5.14.78-6-2.27-3.26-12.24-6.51-24.67-8.94-37.21-18.35.74-40.63-6.09-32.45-26.56,4.4-11,16.18-15.42,28.63-17.34h0a125.74,125.74,0,0,1,2.1-17.92c2.8-14.5,8.56-29.71,18.67-40.75,8.31-9.07,20.63-14.12,32.33-10.53,4.09-6.76,8.9-13,16.42-16.23s16.42-3.28,24.43-1.32c20.63,5,36.26,23.93,58.25,24.2a4.15,4.15,0,0,1,3.55,6.19c-1.89,3.19-5.18,5-8.9,6.12,1.84.94,3.67,1.89,5.46,2.84,16.37,8.63,30.72,19,45.54,29.63,10.76,7.74,32.19,25.56,32.19,25.56-15.33,2.73-33.08,5.88-47,10.2s-28.8,9-28.8,9,2.06,53.52,2.06,77.05v70.07c2.59-.68,4-.87,4.11-.16,2,17.63-4.88,30.2,10.62,44.11,15.06,13.52,34.46,25.69,51.83,37.08,20,13.13,46.29,35.63,59.5,55.72,2.43,3.7,10.44,12.76,17.45,23.2.29-.27.58-.55.89-.81,5.88-5,27.75-10,41.67-7.39.56-1.87,1.17-3.6,1.64-5,4.88-14.86,13.07-35.84,24.76-46.51a27.43,27.43,0,0,1,7.45-4.66v-1.22s2.18-28.34,3.24-40.89c1.07-.21,2.12-.38,3.16-.56.24-6.91,1-31.19-.4-36.94C576.29,451.08,568,448.4,557.79,443s-18.68-11.8-22.94-20.8c-4.77-10.08,6.21-17.47,16-13.5,9.43,3.83,19.34,9.59,29.22,13.4,10.34,4,26.66,5.8,37.68,5.88A187,187,0,0,0,648,426.12c11.15-4.46,35.64-23.06,54.62-30.69a633.72,633.72,0,0,0-27.19-103.8c-24-66.52-45.93-87-91.28-127s-129.54-49.5-178.45-47-99.88,2.48-157.22,36.91C193,187.89,135.8,227.77,109.94,282.09c-25.5,53.57-24.78,112.78-21.09,169.42C90.89,482.82,95,515.19,106.23,545.31Z"/></g><g id="Character"><path class="cls-2" d="M74.09,582.94c14.21-21.38,31.84-38.81,52.07-54.69C146.69,512.13,174,496.71,193.38,480c11.28-9.71,11.57-29.33,17.71-42.75,26.53,12.09,62.55,17.12,93.63,17.12s52-11.11,52.33-8.31c2,17.63-4.88,30.2,10.62,44.11,15.06,13.52,34.46,25.69,51.83,37.08,20,13.13,46.29,35.63,59.5,55.72,5.89,8.95,44.31,49.2,22.61,64.63-8.35,5.93-13.52-4.48-14.92-11.32-2.24-10.93,2.16-23.71,10.65-30.92,8.91-7.56,54.4-15.13,53.6,3.65-.27,6.28-7.6,9.85-11.54,5-4.47-5.52-.57-15.5,1.25-21.06,4.88-14.86,13.07-35.84,24.76-46.51,10.94-10,35.75-10.48,50.73-9.7,19.42,1,44.09-3.2,53.39,18.76,7.74,18.28,3.28,36.13-7.67,42.06,23,0,26.42,39.31,26.42,105.24"/><path class="cls-2" d="M207,471.72c5.66,12.53,25.24,36.84,39.93,39,12,1.79,37.13-19.5,54.88-43.85,5.13,15,13,28.31,20.24,39.26,10.28,15.56,27.41-9.21,31.75-21.08-.52,1.7-1.26,3.41-1.89,5.14"/><path class="cls-2" d="M298.47,491.25c-5.14,34.26-25.51,46.26-32.69,73.07-2.93,10.91-6.75,26.43,6.84,30.77,9.73,3.1,39.21-14,26.85-17.49-15.94,0-29.19,27.61-31.39,40-2.26,12.77,1,26.56,4.7,38.94"/><path class="cls-2" d="M353.75,597.52s51.57-1.59,67.6-5.93"/><path class="cls-2" d="M406.91,581.5c5.74,9.61,7,34.43,7,34.43"/><path class="cls-2" d="M392.49,581.13c8.48,17.31,10.1,55.7,10.1,55.7"/><path class="cls-2" d="M213.17,436.78c0-40.88,4.11-124.35,4.11-124.35-14.9,7.44-60.41,4.89-49.25-23,7.91-19.79,39.63-18.28,56.29-19.26-.17-25.08,10.43-54.92,35.85-63.55,29.94-10.18,62,3.93,88.79,18.07,16.37,8.63,30.72,19,45.54,29.63,10.76,7.74,32.19,25.56,32.19,25.56-15.33,2.73-33.08,5.88-47,10.2s-28.8,9-28.8,9,2.06,53.52,2.06,77.05V444"/><line class="cls-2" x1="297.53" y1="252.1" x2="298.46" y2="262.28"/><line class="cls-2" x1="320.61" y1="250.77" x2="321.54" y2="260.95"/><path class="cls-2" d="M188.51,292.91c6.84-.21,11.19.54,16.44,4.11"/><path class="cls-2" d="M299.47,305.39a19.91,19.91,0,0,0,15.42,6.17"/><path class="cls-2" d="M579.2,498.93s1.23-30.08-.34-36.8C576.29,451.08,568,448.4,557.79,443s-18.68-11.8-22.94-20.8c-4.77-10.08,6.21-17.47,16-13.5,9.43,3.83,19.34,9.59,29.22,13.4,10.34,4,26.66,5.8,37.68,5.88,32.25.25,47.78-4.19,76.91-16.89a308.14,308.14,0,0,1,32.22-11.93c15.91-4.71,26.87,2.73,12,16.93"/><path class="cls-2" d="M649.67,495.94s-.64-16.37,1.85-23.09"/><path class="cls-2" d="M646.17,474.47c17.36-8.83,51.29-17.71,69.41-28.84,3.67-2.25,18.14-11.64,11.82-17.23-3.57-3.16-12.68,3.06-22.3,6.8s-19.49,7.62-19.49,7.62"/><path class="cls-2" d="M684.86,429.59c14.15-4,23.3-9.75,37.36-14.73,5.55-2,14.17-3.69,17.15,2.77S735.64,429.25,729,432"/><path class="cls-2" d="M648,426.12c17.87-7.15,70.07-50.65,78.82-27"/><path class="cls-2" d="M572.86,540.52s2.18-28.34,3.24-40.89c11.09-2.11,20.3-2.67,31.63-3.24,10.61-.54,34.65-.37,45.13,1.18.66,12,2.21,40.95,2.21,40.95"/><path class="cls-3" d="M209.42,353.17c.82,3.05,3.8,3.53,6,2.27,1-24.16,1.9-43,1.9-43-4,2-10.13,3.26-16.8,3.53C202.91,328.5,206.16,340.93,209.42,353.17Z"/><path class="cls-3" d="M348.85,209.51c-22-.27-37.62-19.16-58.25-24.2-8-2-16.77-2-24.43,1.32s-12.33,9.47-16.42,16.23c-11.7-3.59-24,1.46-32.33,10.53-10.11,11-15.87,26.25-18.67,40.75a125.74,125.74,0,0,0-2.1,17.92,167.44,167.44,0,0,1,18.84-1.55c.81,10.1,3.26,19.89,8.68,27.93,1.76,2.61,6.92,2.8,7.51-1a136.91,136.91,0,0,1,17-47.29c5.75-10,11.11-20.78,10.42-32,12.57,6.54,26.94,9.14,41.13,9.06a174.52,174.52,0,0,0,28.93-2.94c7.41-1.28,18.93-1.36,23.22-8.62A4.15,4.15,0,0,0,348.85,209.51Z"/><path class="cls-2" d="M609.86,460.76a3.85,3.85,0,0,1,3.08.69"/></g><g id="Icon"><path class="cls-4" d="M621.8,245.8c-19.11-.78-37,3.27-49.07,16.36C560.91,275,557.28,285.48,553.17,303c-2.82,12,0,22.9,2.75,34.62,3.16,13.22,12.36,22.31,24.77,31.07s35.55,12,45.62,11.59c11.26-.44,20.64-.87,31.5-4.5C666,373,678.87,365.15,683.7,358A74.28,74.28,0,0,0,695,303.5c-3.27-17.12-11.59-33.36-25.22-44.63C659.76,250.62,640.91,246.59,621.8,245.8Z"/><path class="cls-2" d="M608.74,246.1c9.54-.39,25.1,2.75,31.69,6.72s15.8,10.47,22.55,19.72c5.56,7.62,11.44,22.1,12.23,31.25,1.14,13.07-2.52,32-9.31,43.27-3.13,5.2-12.22,16.27-22.42,23.25s-19.39,9.3-31,9"/><path class="cls-2" d="M589.66,302.82c3.81-2,7.63-4.07,11.26-6.35-.18,11.16-1.73,22.34-1.72,33.61"/><path class="cls-2" d="M589.66,329.4c2.73,2,9,1.61,12.34,2,2.43.26,4.55.94,7.08.76"/><path class="cls-2" d="M634,296c-5.39-3.84-12-.87-12.26,5.79-.29,6.13,6.62,12.8,11.92,6.82"/><path class="cls-2" d="M620,323.61c4.68,0,10.38,0,15,1"/><path class="cls-2" d="M567.51,320.2c-3.41-11.9.14-24.32,6.8-34.32,3.66-5.49,9-12.3,15.07-15.09,5.33-2.43,11-3,16.63-3.4"/><path class="cls-2" d="M626.8,267.73a34,34,0,0,1,18,7.48c6.33,4.9,10.31,12.92,12.54,20.54A57.72,57.72,0,0,1,649.66,344c-3.06,4.47-9.79,10-14.68,12"/><path class="cls-2" d="M617,360.09c-3.9.93-8.16-.14-12-1.06"/><path class="cls-2" d="M588.78,352c-7.74-4.56-12.43-9.66-15.48-17.83"/><path class="cls-2" d="M649.63,257.5c6.2,0,12.24.34,18.4.34"/><path class="cls-2" d="M674.16,291.24c3.61,1.09,13.21,1.59,17,0"/><path class="cls-2" d="M675.18,324.29c6.39,0,13-.27,19.09,0"/><path class="cls-2" d="M661.92,354.91c4.51,1.39,9.58.5,14.31.68,2.76.11,6.3-.61,8.86.35"/><path class="cls-2" d="M649.29,366.88c7.3,0,14.69.47,21.81.69"/></g></g></g></svg>