<svg xmlns="http://www.w3.org/2000/svg" viewBox="0 0 820 820">
	<defs>
		<style>
			.cls-1 {
				fill: #000;
			}

			.cls-2 {
				fill: none;
				stroke: #2a3042;
				stroke-linecap: round;
				stroke-linejoin: round;
				stroke-width: 7px;
			}

			.cls-3 {
				fill: #2a3042;
			}
		</style>
	</defs>
	<g id="CHARACTERS">
		<g id="Release">

			<g id="Character">
				<path class="cls-2" d="M499,355.7c6.21-3.83,36.31-21,36.31-4.72,0,10.22-26.92,15.23-29.92,24.33" />
				<path class="cls-2" d="M399.41,374.31c2.3-26.36-23.67-47.22-16.93-58.17s29.27,18.39,36.56,25.5" />
				<path class="cls-2"
					d="M458.26,402.89S477,313.72,506.21,315c0,0-7.37,11.22-8.79,16.51,4.23-10.27,21-31.14,36-29.51,7.25,2-13.69,16.88-18.34,25.25,4.45-3.52,38.47-38.17,43.78-24.05,3.38,9-17.69,18.41-30.69,31.3C544.09,321.33,553,313.72,560,315c16.28,4.4-5,21.18-10.47,26.82-18.14,18.75-32.71,40.19-41.57,64.82" />
				<path class="cls-2"
					d="M402.57,323.08c-8-22.76-16.27-45.26-9.16-52.23,13.67-13.43,19.43,32.46,21.55,37.85-.55-5.44-10.43-35.39-.77-34.34,7.24.78,11.9,31.78,14.39,37.52-.25-5.7-4-22.68-.87-22.68,10,0,11.49,26.67,11.75,29.52.15-1.4-3.26-19.52-3.26-19.52,12,1.12,17.61,42.61,18.46,52.43,1.39,16.26-5,31.5-16.2,43.9" />
				<path class="cls-2"
					d="M314.56,650.33C366.21,573.7,408.21,493.7,449.21,409.7c1-2,3-5,5-6,14-4,28-4,43-1,7,1,13,5,11,13-2,9-6,17-5,27,2,9,7,16,8,25v8c-1,7-5,14-6,21-3,14,1,27,0,40-3,18-10,33-12,51-1,6,0,13,1,19a523.71,523.71,0,0,1,8.17,66.24" />
				<path class="cls-2"
					d="M234.15,543.31c17-20.28,30.29-36,34.67-40.88,10.44-11.68,29.28-27.71,39.73-38.07,9.88-9.79,12.79-33.4,30.41-31.1,1-8.64,7-14.25,13.17-19.9,7.54-6.93,14.07-9.19,21.56-9.19,0,0,17.59-21.9,23.59-31.68,13.93,5.71,29.93,13.38,42.68,27,0,0-21.5,37.25-29.84,53.47-11,21.43-21.47,43.26-32.75,64.61-18.19,34.41-39.28,76.31-64.38,136.25" />
				<path class="cls-2" d="M373.69,404.17c18.92,3.4,32.09,11.8,45.35,29.42" />
				<path class="cls-2" d="M435.05,437.26c15.16-3.67,52.66-.94,68.37,6" />
				<path class="cls-2"
					d="M170.24,586.11c6.41,19.25-21.73,31.12-32.39,14-6.41-10.28-2.55-42.62,14.78-41.56" />
				<path class="cls-2"
					d="M146.73,687.06c-13.07-49.21-41.89-96.4-50-146.91C90.13,498.59,141.57,472,177,466.69c25.62-3.85,52-10.46,76.45-15.79-4.24,11.76-15.73,20.53-22.52,31.05-4.2,6.51-17.16,20.18-16.3,27.38,1,8.8,14.51,24.4,25.26,43.53s23.75,46.74,28.95,67" />
				<path class="cls-2" d="M61.27,754.84C80.21,727.7,99.21,699.7,123.8,677.9" />
				<path class="cls-2" d="M138.37,691c28,0,54.4-7.92,78.44-22.36,20.13-12.1,49.5-35.17,56.23-58.9" />
				<path class="cls-2" d="M143.67,739.46c-10.2-2.06-19.85-5.62-24.54-11.76-9-11.75.75-54.76,19.24-67" />
				<path class="cls-2"
					d="M263.62,599.6c11.59-3.9,26,3.9,31.09,10.1,3.71,4.47,15.5,17.5-13.5,6.5,28.5,11,33.45,24.81,31.78,37.58-2.71,20.71-15.23,39.22-44.17,60.92" />
				<path class="cls-3"
					d="M182.8,451.8c.81-2.47-2.38-3.9-4.1-2.38-17.37,15.38-42.41,14.76-62.85,23.7-16.63,7.28-32.71,25.12-25.91,44.4a2.61,2.61,0,0,0-.92.3c-11.94,6.53-16,21-14.75,33.77,1.43,14.95,9,28.28,17.94,40,4.56,6,9.45,11.79,14.48,17.41,4.6,5.14,10,10.48,17.1,11.58,5.37.83,18.09-3.58,19.42-12.23,0,0-5.66-7-6.54-13.2a67.32,67.32,0,0,1-.35-15.54c.45-4.8,1.13-11,3.76-15.17,5.27-8.36,17-1.7,23,2.17,2.2,1.43,4.36-1.31,3.35-3.36a87.58,87.58,0,0,0-52.89-44.8C144.92,507.54,172.32,484,182.8,451.8Z" />
				<path class="cls-2"
					d="M532.06,158.21c18.18-3.14,42.71-15.83,55.65-19.81,19.4-6,53.5-20.1,59.79-10.64,6,16.1-59.92,26.91-69.62,30.27,10.84-3.16,41.14-11.06,45.8-.67,4.18,9.34-41.61,16.79-68.47,22.67,25-3.67,42.32-12.46,51.14-4,6.2,6-1.83,12.88-8.8,14.64-21.15,5.31-45.08,11.85-66.86,13" />
				<path class="cls-2"
					d="M530.69,203.7c2.14,9.75,4.57,20.37,3.77,30.75-1.67,22-12.25,4.25-16.12-6.51,8.61,19.26-5.38,29.76-10.05,8.67.67,13.25-9.72,35.25-19.11,35.78-13.89.78,2.91-35.61,6.42-41-3,4.44-16.69,14.59-22.44,11.06-8.39-5.15,2.3-15.77,10.9-22-10.35,5.07-15.74,5.7-16.85.2s16.74-20.45,24.67-25.34c-23.19-6.25-40.83-12-54.41-18.51s-19.78-9.91-18.49-18.7,13.35-6,20.9-4.45,24,9.42,33.33,13.33c-14.62-9.86-36.86-19-51.06-29.59-4.67-3.48-20.28-14.06-17.15-22,6.73-16.94,53.26,17.86,72.55,33.87-17.15-17.44-30.15-32.09-48.67-47.74C416.53,91.18,401.26,77.7,408,67.41c8.24-11.71,44.4,25.69,55.24,36.62,13.84,13.94,24.8,30,40.81,44" />
				<line class="cls-2" x1="337.33" y1="112.38" x2="322.41" y2="114.01" />
				<line class="cls-2" x1="337.74" y1="185.88" x2="322" y2="192.33" />
				<line class="cls-2" x1="352.47" y1="200.98" x2="345.58" y2="208.74" />
				<line class="cls-2" x1="623.68" y1="250.86" x2="632.04" y2="262.48" />
				<line class="cls-2" x1="656.49" y1="222.99" x2="665.81" y2="228.14" />
				<path class="cls-2"
					d="M503,155.07c3.53-14.37,14.33-34.48,27.93-36.56,18.73-2.88,16.11,24.92,11.31,35.2" />
				<polyline class="cls-2" points="532.06 117.79 549.63 101.62 545.28 130.28" />
				<path class="cls-2" d="M173.63,513.05a69,69,0,0,1-2.45-10.62" />
				<line class="cls-2" x1="192.21" y1="494.98" x2="198.63" y2="497.12" />
				<path class="cls-2" d="M208.41,547c4.41-2.86,6.15-7.31,7.35-12.26" />
				<line class="cls-2" x1="198.63" y1="509.38" x2="192.21" y2="507.74" />
				<path class="cls-2" d="M172.88,486.7c1.27-1.74,2.79-3.88,4-5.67" />
				<path class="cls-2" d="M155.21,577.7c-1.6,2.83-3.41,5.54-4,8.66" />
			</g>
		</g>
	</g>
</svg>