<svg id="SvgjsSvg1001" width="288" height="288" xmlns="http://www.w3.org/2000/svg" version="1.1"
	xmlns:xlink="http://www.w3.org/1999/xlink" xmlns:svgjs="http://svgjs.com/svgjs">
	<defs id="SvgjsDefs1002"></defs>
	<g id="SvgjsG1008"><svg xmlns="http://www.w3.org/2000/svg" width="288" height="288" viewBox="0 0 66 66">
			<path
				d="M33.0 9.0C33.0 6.79 31.21 5.0 29.0 5.0C29.0 5.0 9.0 5.0 9.0 5.0C6.79 5.0 5.0 6.79 5.0 9.0C5.0 9.0 5.0 29.0 5.0 29.0C5.0 31.21 6.79 33.0 9.0 33.0C9.0 33.0 29.0 33.0 29.0 33.0C31.21 33.0 33.0 31.21 33.0 29.0C33.0 29.0 33.0 9.0 33.0 9.0C33.0 9.0 33.0 9.0 33.0 9.0M24.38 25.92C24.26 25.98 24.13 26.0 24.0 26.0C23.61 26.0 23.24 25.77 23.08 25.38C23.08 25.38 21.25 21.0 21.25 21.0C21.25 21.0 16.75 21.0 16.75 21.0C16.75 21.0 14.92 25.38 14.92 25.38C14.71 25.89 14.13 26.14 13.62 25.92C13.11 25.71 12.86 25.12 13.08 24.62C13.08 24.62 15.0 20.01 15.0 20.01C15.0 20.01 15.0 20.0 15.0 20.0C15.0 20.0 15.31 19.28 15.31 19.28C15.31 19.28 18.08 12.62 18.08 12.62C18.23 12.24 18.6 12.0 19.0 12.0C19.4 12.0 19.77 12.24 19.92 12.62C19.92 12.62 24.92 24.62 24.92 24.62C25.14 25.12 24.89 25.71 24.38 25.92C24.38 25.92 24.38 25.92 24.38 25.92"
				fill="#2a3042" class="color000 svgShape"></path>
			<!-- <polygon points="20.42 19 19 15.6 17.58 19" fill="" class="color000 svgShape"></polygon> -->
			<path
				d="M37 33C34.79 33 33 34.79 33 37 33 37 33 57 33 57 33 59.21 34.79 61 37 61 37 61 57 61 57 61 59.21 61 61 59.21 61 57 61 57 61 37 61 37 61 34.79 59.21 33 57 33 57 33 37 33 37 33 37 33 37 33 37 33M45.033203 39.050781C46.214844 39.050781 47.10083 39.641114 47.919922 40.742188 47.919922 40.742188 47.705078 41.025391 47.705078 41.025391 47.006836 40.703125 46.334717 40.582031 45.623047 40.582031 44.132569 40.582031 42.9375 41.334228 42.9375 41.884766 42.9375 42.489014 43.286378 42.972168 44.105469 43.589844 44.588868 43.938965 45.260742 44.314453 45.529297 44.314453 45.797852 44.314453 46.039306 44.179688 46.267578 44.072266 47.476074 43.494874 48.686035 42.972168 49.894531 42.515625 49.894531 42.515625 49.960941 42.554685 49.960941 42.554685 49.960941 42.554685 49.451175 44.31445 49.451175 44.31445 47.75928 44.972409 46.160404 45.670163 44.884769 46.435544 43.528568 47.254635 42.628909 48.356931 42.628909 49.404294 42.628909 51.660153 45.099857 53.203122 48.765628 53.203122 50.094974 53.203122 51.303226 53.042722 52.189456 52.81445 52.189456 52.81445 52.283206 53.056638 52.283206 53.056638 51.598391 53.566891 50.859867 54.090573 50.027347 54.560544 49.59766 54.802243 48.806643 54.949216 47.732425 54.949216 44.469485 54.949216 41.7168 53.405759 41.7168 49.941403 41.7168 48.18237 42.656253 46.731443 43.945315 45.603513 42.495119 44.569577 41.931644 43.843991 41.931644 42.675778 41.931644 42.098385 42.132327 41.305905 42.535159 40.621091 43.152835 39.600583 44.066409 39.050778 45.033206 39.050778 45.033206 39.050778 45.033203 39.050781 45.033203 39.050781M36.1682 20.5222C36.2228 20.6087 36.2833 20.6872 36.3609 20.7531 36.3766 20.7665 36.3832 20.7873 36.3999 20.7998 36.3999 20.7998 40.3999 23.7998 40.3999 23.7998 40.5801 23.9346 40.7905 24 40.999 24 41.3032 24 41.6035 23.8623 41.7998 23.5996 42.1313 23.1582 42.042 22.5312 41.6001 22.2002 41.6001 22.2002 39.9998 21 39.9998 21 39.9998 21 43 21 43 21 43.2856 21 50 21.0908 50 29 50 29.5527 50.4478 30 51 30 51.5522 30 52 29.5527 52 29 52 19.1143 43.0898 19 43 19 43 19 39.9998 19 39.9998 19 39.9998 19 41.6001 17.7998 41.6001 17.7998 42.042 17.4687 42.1314 16.8418 41.7998 16.4004 41.4697 15.958 40.8433 15.8701 40.3999 16.2002 40.3999 16.2002 36.3999 19.2002 36.3999 19.2002 36.3832 19.2127 36.3766 19.2335 36.3609 19.2469 36.2831 19.3129 36.2226 19.3913 36.168 19.4779 36.1456 19.5135 36.1166 19.5422 36.099 19.5803 36.0389 19.7088 36 19.8487 36 20 36 20.1513 36.0389 20.2911 36.099 20.4196 36.1168 20.4578 36.1458 20.4866 36.1682 20.5222 36.1682 20.5222 36.1682 20.5222 36.1682 20.5222M29.832 45.4779C29.7774 45.3913 29.7169 45.3129 29.6391 45.2469 29.6234 45.2335 29.6168 45.2127 29.6001 45.2002 29.6001 45.2002 25.6001 42.2002 25.6001 42.2002 25.1577 41.8691 24.5322 41.958 24.2002 42.4004 23.8687 42.8418 23.958 43.4688 24.3999 43.7998 24.3999 43.7998 26.0002 45 26.0002 45 26.0002 45 23 45 23 45 22.7144 45 16 44.9092 16 37 16 36.4473 15.5522 36 15 36 14.4478 36 14 36.4473 14 37 14 46.8857 22.9102 47 23 47 23 47 26.0002 47 26.0002 47 26.0002 47 24.3999 48.2002 24.3999 48.2002 23.958 48.5313 23.8686 49.1582 24.2002 49.5996 24.3965 49.8623 24.6968 50 25.001 50 25.2095 50 25.4199 49.9346 25.6001 49.7998 25.6001 49.7998 29.6001 46.7998 29.6001 46.7998 29.6168 46.7873 29.6234 46.7665 29.6391 46.7531 29.7168 46.6872 29.7773 46.6088 29.8318 46.5222 29.8542 46.4866 29.8832 46.4577 29.901 46.4196 29.9611 46.2911 30 46.1513 30 46 30 45.8487 29.9611 45.7088 29.901 45.5803 29.8834 45.5422 29.8544 45.5135 29.832 45.4779 29.832 45.4779 29.832 45.4779 29.832 45.4779"
				fill="#2a3042" class="color000 svgShape"></path>
		</svg></g>
</svg>